<svg width="20" height="20" viewBox="0 0 20 20" fill="none" xmlns="http://www.w3.org/2000/svg">
<path d="M1.99897 11H18.999C19.2642 11 19.5186 10.8946 19.7061 10.7071C19.8937 10.5196 19.999 10.2652 19.999 10C19.999 9.73478 19.8937 9.48043 19.7061 9.2929C19.5186 9.10536 19.2642 9 18.999 9L1.99897 9C1.73375 9 1.4794 9.10536 1.29186 9.2929C1.10433 9.48043 0.998968 9.73478 0.998968 10C0.998968 10.2652 1.10433 10.5196 1.29186 10.7071C1.4794 10.8946 1.73375 11 1.99897 11Z" fill="black"/>
<path d="M8.99724 19.9987C9.19528 19.9991 9.38896 19.9406 9.55374 19.8308C9.71852 19.7209 9.84698 19.5646 9.92281 19.3816C9.99865 19.1987 10.0184 18.9973 9.97971 18.8031C9.94097 18.6089 9.84545 18.4306 9.70523 18.2907L2.41723 10.9987C2.14903 10.7302 1.99838 10.3662 1.99838 9.98671C1.99838 9.6072 2.14903 9.24321 2.41723 8.97471L9.69724 1.6947C9.87939 1.5061 9.98019 1.25351 9.97791 0.99131C9.97563 0.729113 9.87046 0.478293 9.68505 0.292884C9.49965 0.107476 9.24884 0.00231623 8.98664 3.78063e-05C8.72444 -0.00224061 8.47184 0.0985438 8.28324 0.280702L1.00324 7.56071C0.360468 8.20487 -0.000529289 9.07771 -0.000529289 9.98771C-0.000529289 10.8977 0.360468 11.7706 1.00324 12.4147L8.28324 19.6947C8.37599 19.7904 8.48693 19.8666 8.60954 19.9188C8.73216 19.971 8.86397 19.9982 8.99724 19.9987Z" fill="black"/>
</svg>
